<svg width="928" height="596" viewBox="0 0 928 596" fill="none" xmlns="http://www.w3.org/2000/svg">
<path d="M675 98L667 94L554 51L411 46.5L275.5 172.5L158.5 370.5L124 433L90.5 482.5L88 484.5V492L90.5 502V518.5L93 522L94.5 526L95.5 533L102.5 536.5L108.5 541L112.5 551L116 557L123 563.5L129 572L137 576H144L150.5 582H158.5V588.5L173 595.5V582L182 594.5H205.5L212.5 588.5L216.5 586L212.5 584L197.5 580H203.5V576H214L232.5 572L221 567.5H237H248.5L243.5 566L228 562L241 559L229.5 554L241 552L234.5 544.5C232.667 544.5 232.6 544 247 542C261.4 540 254 540.167 248.5 540.5L228 538L241 535L228 527.5L238 523L232.5 516V508.5L228 499.5L221.5 420.5L402.5 398.5L418.5 473.5L482.5 558L490 510.5L536.5 432L578 416H598L624 425L636.5 420.5L674.5 396L724 448.5L733.5 459.5V465H741L739.5 477.5L748 469.5L753 479.5V473.5L768.5 489H777V502.5L781 506.5L785.5 516L792 532.5L798 540.5L801.5 558H862L928 555.5L911 516L915 512L901 499.5L907.5 491.5L884.5 459.5L887 446.5L850.5 396H856L831.5 381H835L818 365.5V360.5L808 327.5L804 301.5L801.5 277.5L789.5 257.5L802 265L785.5 245.5L781 235L780 230L765 219H777L760.5 209.5H768.5L758 201L763 198.5L750.5 191L756 186.5L741 182.5H750.5L741 176L747 174L728 163L730 162L717.5 156.5L720.5 148.5H709.5L716 142L701.5 135L705 126.5H696L699 121.5L686.5 115.5L688 114L675 104L688 99L675 98Z" fill="#95633A"/>
<path d="M383 242.5L364.5 232L259.5 314V349.5L339 421.5L345 416L347 427.5L355 419.5L360 429V419.5L367 436V424.5L375 436V429L383.5 431.5H392.5V424.5L399 431.5L394.5 448.5V451.5V460.5H397L394.5 465.5V492.5L405.5 508L399 529H408V540.5L402 567.5H399L402 583.5L394.5 594H518.5L503.5 590.5V583.5L494.5 581V574V557.5L496.5 560.5V547.5L503.5 546V537L506 524.5L518.5 537L508 503.5L511.5 492.5L514.5 495.5V482.5L520 484L516.5 465.5L521.5 467.5L523 457.5V448.5L534.5 472.5V460.5L540.5 447L548.5 443.5L550 440.5L556.5 438.5H562L573 445.5V438.5L574.5 429L582 436V431.5L591 436V419.5L598 424.5H602L608 436L591 448.5L593 451.5H611L624.5 440.5L629.5 427.5L635.5 457.5V438.5L645 442L640.5 433.5L654.5 440.5L648 427.5L654.5 424.5L658.5 440.5V427.5L665 418.5L668 445.5L670.5 421.5L672 417.5L679.5 412V416L682.5 419.5L685.5 430L692 431.5L696.5 457.5L698 443.5L705.5 438.5L710 448.5L723.5 464.5V457.5L727.5 460.5L731 454.5L718 431.5V419.5V408.5H700V401L692 397.5L708.5 382L700 379V368.5H693.5L688.5 358V373.5L679.5 364L686.5 362L676.5 341V325L688.5 329L678 314.5L664 283.5V291.5V298.5L666.5 316.5L656 314.5L658.5 323L664 334L658.5 336.5V345.5L656 353V362L670.5 388.5L653 379L658.5 397.5L640.5 382V397.5L634 388.5L638 408.5L629.5 397.5V421.5L624.5 408.5L618 421.5L611 412L604 416L593 397.5V412L578 397.5L573 382H566H559.5V408.5L540.5 388.5V412L529.5 388.5V402.5L516 392.5L514.5 429L506.5 382L510 373.5L479.5 360.5L494.5 412V436L490 447L488.5 460.5L494.5 484L488.5 478V489.5L479.5 484L482.5 464.5L471 447L472.5 467.5V478L477 489.5L482.5 508L477 506V529L472.5 506L458.5 489.5L451 484H458.5L436.5 457L427.5 444L424 437.5H431.5L421 421.5H431.5V402.5L444 410.5V394.5L458.5 401L460 373.5L421 343.5L377 362L409.5 323L404.5 249L393.5 239.5L377 236L383 242.5Z" fill="#734724"/>
<path d="M249 475L253 470V451.5L130 389L112 397.5L118.5 398.5L108 406H117L104.5 410.5L110.5 415.5L102.5 416L108 419.5L105 424.5L108 427.5V436L102.5 441.5V450H93L91.5 465.5L88 480V486L94.5 497.5V489L105 499.5V489L116 497.5V489L127.5 503V489L150 513L139.5 492.5L158 499.5V486L174.5 492.5L184.5 480L192.5 489L197 486L228 508L249 486V475Z" fill="#734724"/>
<path d="M640 106.5L628 108.5L562.5 83L581 63L634.5 71L656 74.5L645.5 81.5L667 85H653.5L671 94H643.5L651 101.5H628L640 106.5Z" fill="#734724"/>
<path d="M673 263L658.5 244L661 274.5L628 239.5L647 253L637.5 224.5L645.5 228.5V216L651.5 224.5L648.5 207.5L653 196L648.5 176L656 184L664 219.5V196L668 209L675 197.5V209H679.5L675 224.5H684L678 232L686.5 240.5L673 247V263Z" fill="#734724"/>
<path d="M363.5 250L352 243.5L329 246L303 137L352 46L434 81L443 99L448 114.5L440.5 105.5L443 114.5L413 97.5L430.5 127L413 107L426 129.5L413.321 117.096L427.5 149L414.5 129.5L389 118L407 133L426 167.5L411.5 149L396 133L414.5 171.5L387.5 137L397.5 152.5L407 187.5L383 151.5L397.5 183L377.5 160.5L389 184.5L357.5 158.5L386 192.5L372 191L389 200.5L368.5 199L389 214.5H379.5L390 230L368.5 212.5L376 227L358.5 217.5L376 240.5L361.5 235L377.5 252L365.5 246L368.5 258L363.5 250Z" fill="#8B5635"/>
<path d="M591 210.5H597.5L591 183L522 88.5L434 68.5L446.5 92.5L460 109V131.5L448 122.5L432 143L436 162.5L445 183L437.5 151.5L443 158.5L446.5 149H464L468.5 166L454 171.5L460 184.5H452.5V195L436 184.5L419 177V195H409.5L411.5 208L399.5 210.5L402.5 227H397.5V246H389L401 260H386L402.5 271.5H389L405 289.5L392 286L399.5 311.5L385 306.5H377.5L380 313H373L375.5 326H366.5L375.5 342.5L360.5 335.5L370.5 366L348.5 350L350 362.5L345.5 360L342.5 366L340.5 360L345.5 390V376L350 390L353.5 366L357 385L364.5 372.5V385L370.5 378L366.5 393H375.5L383 364V376L377.5 395.5L383 385L390.5 364L396 398.5V364L399.5 395.5V376V364L419 366L405 360H415L419 350L431 387.5L428.5 371L437.5 385V371L456.5 395.5L449.5 393L456.5 413V406L467.5 418L461 421L467.5 433L489 454.5L482 443L477 425V413L498 456L517.5 484.5L506.5 456L501 441L503 430.5L495.5 415L508 419.5L503 402L491.5 387.5V371L505 385L508 404L513.5 427L510.5 400L508 378L522 393V376L510.5 351.5V331L508 321L519 326L513.5 315L533.5 307L515.5 306.5L522 300.5L508 279.5L526 287.5L506 255L509.5 250L501.5 240.5L508 238L496.5 227L506 233L499.5 206L532.5 246L503 199L536.5 238L499.5 160.5L526 216L551 230L540 221L547.5 222.5L526 181.5L559.5 217.5L547.5 195L584.5 238L581.5 230L591 235V210.5Z" fill="#8B5635"/>
<path d="M738.5 233L707 187.5L708.5 214.5L700 203L694 208.5L686 192L679.5 196.5L677 190L675 199L686 196.5L689 222.5L695.5 214.5L705.5 227L710 235H714L730.5 268L714 252V268L697 225.5L675 247L686 246L681 261L689 254L686 287L697 268L689 290L710 343L701 314L723.5 339L746.5 374.5L727.5 340L743.5 345.5L727.5 321.5L757.5 332.5L738.5 299L749.5 315.5L746.5 256.5L767 325L760.5 282L785 326.5L776.5 303L802.5 328.5H816.5L806.5 314L818.5 318L810.5 311L790.5 281L767 235L783 252L772 233L757.5 227V238L738.5 214.5V233Z" fill="#8B5635"/>
<path d="M610.5 56.5L581 47L437.5 33L406 24L378 33L396 50L427 66L459 70.5L507.5 92.5L557.5 128L598.5 154L618 145.5L612.5 119.5L598.5 98L586 87L581 77.5L588 64.5L631.5 70.5L610.5 56.5Z" fill="#B28050"/>
<path d="M113 125.5L121 131L175.5 111L192 104V85.5L202.5 95.5L204 74L211.5 88.5L220.5 71L223 78L238 67.5L242 79.5L265.5 60.5L255.5 74L280 69L263 81.5L284.5 78L306 89L346 104L364.5 119.5L348 93.5L356.5 95.5L376.5 122L372 99.5L344 78L364.5 87.5L389.5 112L379.5 93.5L353.5 69L367 75.5L403.5 102.5L367 66.5L344 56.5L364.5 60.5L409 93.5L379.5 66.5L407.5 85L395 71L407.5 79.5L433.5 104L427.5 82.5L454.5 102.5L435.5 71L465.5 91L460 75.5L474.5 79.5L494 95.5L492 89L515 115.5L505.5 93.5L522.5 112L555.5 141.5L553 136L562 137.5L578 149L562 146.5L569.5 173L571.5 162L584 219.5L582.5 189.5L606.5 229L593 193L609 215.5L592 180.5L616.5 202.5L591 169.5L620.5 200.5L606.5 174L631.5 200.5L641.5 215.5L640 200.5H644.5L637 193H646L637 182.5L631.5 166L641.5 182.5V170.5L634.5 157L619.5 138.5L629.5 141.5L637 149L643.5 162L656 180.5L643.5 153.5L630.5 129.5L615.5 117H622.5L643.5 141.5V129.5L640 124H643.5L636 115.5L643.5 112L630.5 106L609 98L585 84.5H593L585 66.5L595.5 75.5H630.5L617.5 72.5L636 71L620.5 66.5L609 60.5L574 53L588.5 60.5H562.5L582.5 71H562.5L582.5 79.5H574L585 91H574L588.5 95.5L582.5 106L609 115.5L603.5 120.5L615.5 141.5L582.5 124L593 146.5L568.5 129.5L553 108.5L481.5 71L463 66.5L465.5 60.5H427.5L435.5 50.5L387.5 38L411 34.5L403.5 30L419.5 26.5L414.5 19L427.5 12.5H414.5V5L411 15.5L407 2L398.5 19V12.5L389.5 15.5V12.5L376.5 15.5V12.5L367 19L361 15.5L349.5 21V15.5L337 24V19H329V15.5L306 24L310 15.5H298.5V9L283.5 21V5L272 21L274.5 15.5L263 19V12.5L248.591 19L244.5 26.5L242 15.5L238 30L233.5 19L232.5 24L225.5 21V34.5L223 26.5L220.5 40L216.5 34.5L208.5 50.5V56.5L201.5 40V63.5L187 56.5V66.5L179 63.5L175.5 71H164.5V79.5H155.5L161.5 88.5H143L151.5 100.5H133L137.5 112H119.25L129.5 122L119.25 125.5H113Z" fill="#B17541"/>
<path d="M125.5 125.5H119.25M119.25 125.5H113L121 131L175.5 111L192 104V85.5L202.5 95.5L204 74L211.5 88.5L220.5 71L223 78L238 67.5L242 79.5L265.5 60.5L255.5 74L280 69L263 81.5L284.5 78L306 89L346 104L364.5 119.5L348 93.5L356.5 95.5L376.5 122L372 99.5L344 78L364.5 87.5L389.5 112L379.5 93.5L353.5 69L367 75.5L403.5 102.5L367 66.5L344 56.5L364.5 60.5L409 93.5L379.5 66.5L407.5 85L395 71L407.5 79.5L433.5 104L427.5 82.5L454.5 102.5L435.5 71L465.5 91L460 75.5L474.5 79.5L494 95.5L492 89L515 115.5L505.5 93.5L522.5 112L555.5 141.5L553 136L562 137.5L578 149L562 146.5L569.5 173L571.5 162L584 219.5L582.5 189.5L606.5 229L593 193L609 215.5L592 180.5L616.5 202.5L591 169.5L620.5 200.5L606.5 174L631.5 200.5L641.5 215.5L640 200.5H644.5L637 193H646L637 182.5L631.5 166L641.5 182.5V170.5L634.5 157L619.5 138.5L629.5 141.5L637 149L643.5 162L656 180.5L643.5 153.5L630.5 129.5L615.5 117H622.5L643.5 141.5V129.5L640 124H643.5L636 115.5L643.5 112L630.5 106L609 98L585 84.5H593L585 66.5L595.5 75.5H630.5L617.5 72.5L636 71L620.5 66.5L609 60.5L574 53L588.5 60.5H562.5L582.5 71H562.5L582.5 79.5H574L585 91H574L588.5 95.5L582.5 106L609 115.5L603.5 120.5L615.5 141.5L582.5 124L593 146.5L568.5 129.5L553 108.5L481.5 71L463 66.5L465.5 60.5H427.5L435.5 50.5L387.5 38L411 34.5L403.5 30L419.5 26.5L414.5 19L427.5 12.5H414.5V5L411 15.5L407 2L398.5 19V12.5L389.5 15.5V12.5L376.5 15.5V12.5L367 19L361 15.5L349.5 21V15.5L337 24V19H329V15.5L306 24L310 15.5H298.5V9L283.5 21V5L272 21L274.5 15.5L263 19V12.5L248.591 19M119.25 125.5L129.5 122L119.25 112H137.5L133 100.5H151.5L143 88.5H161.5L155.5 79.5H164.5V71H175.5L179 63.5L187 66.5V56.5L201.5 63.5V40L208.5 56.5V50.5M208.5 26.5V50.5M208.5 50.5L216.5 34.5L220.5 40L223 26.5L225.5 34.5V21L232.5 24L233.5 19L238 30L242 15.5L244.5 26.5L248.591 19M250.5 15.5L248.591 19" stroke="#B17541"/>
<path d="M169.5 107L181 114L186 120.5L281.5 136.5L309 89.5L301.5 83L292 79L306 75L289.5 76.5L296 74L305 68L321.5 67L305 66L296.5 70.5L281.5 74L290 68.5L285.5 67H272.5L282 64V61L292.5 54L283 57L278.5 62.5L272 63.5L262.5 67L265.5 60.5L256 63L267.5 59L274 56.5L282 45L266.5 56.5L259 59L257.5 54L263.5 51.5L267.5 49.5L285.5 34.5L266.5 45L257.5 51.5H256L263.5 38L252 51.5L256 56.5L252 59V63V70.5L249.5 67.5L246.5 73L243 70.5V77L241.5 70.5V63.5L230 70.5L235.5 63.5L239 60L241.5 51.5L236.5 60L232.5 63L229 67.5L220 71V67.5L216.5 59L218 66L213 79L210.5 69.5V85.5L204.5 69.5L201 79V87L196.5 79V85.5L190.5 79V91L188 85.5L182.5 82L186 85.5L188 100.5L181 97L184 104L169.5 91L176 107H169.5Z" fill="#734724"/>
<path d="M201 71V79M201 79V87L196.5 79V85.5L190.5 79V91L188 85.5L182.5 82L186 85.5L188 100.5L181 97L184 104L169.5 91L176 107H169.5L181 114L186 120.5L281.5 136.5L309 89.5L301.5 83L292 79L306 75L289.5 76.5L296 74L305 68L321.5 67L305 66L296.5 70.5L281.5 74L290 68.5L285.5 67H272.5L282 64V61L292.5 54L283 57L278.5 62.5L272 63.5L262.5 67L265.5 60.5L256 63L267.5 59L274 56.5L282 45L266.5 56.5L259 59L257.5 54L263.5 51.5L267.5 49.5L285.5 34.5L266.5 45L257.5 51.5H256L263.5 38L252 51.5L256 56.5L252 59V63V70.5L249.5 67.5L246.5 73L243 70.5V77L241.5 70.5V63.5L230 70.5L235.5 63.5L239 60L241.5 51.5L236.5 60L232.5 63L229 67.5L220 71V67.5L216.5 59L218 66L213 79L210.5 69.5V85.5L204.5 69.5L201 79Z" stroke="#734724"/>
<path d="M435 34L408.5 30L424 26.5L405 28L414 20.5L435 16.5L431 22.5L438.5 19.5L464 17.5L457.5 20.5H460L470 22.5H511C511.8 22.5 507.333 24.1667 505 25H531.5L527 28.5L546 30L539 33H551.5L582 46.5L596 57L582 50.5L546 44.5L574 55.5H565L570 58L554.5 57L565 64L547 60.5L571.5 71L546 68L562 73L548 71L566.5 81.5L547 77.5L578 95L544.5 81.5L577 97.5L590 117.5L575 112.5L597.5 131.5L573 114.5L527 90.5L508 85L518.5 83L514 81.5H502L508 77.5H488.5L492 73L475 69L482 66L466 60.5L473.5 57L464 54L471.5 52.5L460 50.5L457.5 57L445 52.5L443 57L438.5 52.5V45.5L416.5 44L419 41L402 38L413 34H435Z" fill="#A77044"/>
<path d="M375 521L368.5 518L357.5 505.5H370L416.5 521H395.5H382H375Z" fill="#513037" stroke="#513037"/>
<path d="M383 513.5L401.5 517L408 508.5L388.5 485.5L366.5 460.5L348.5 432.5L279 371L244.5 362.5L108 328L75.5 335L66 337.5L62 332L52 326.5L53.5 347L48.5 359.5L40.5 370.5L18.5 391L17.5 401.5L36.5 390L40.5 386.5L49.5 376L60.5 365.5L65 364.5L73.5 361.5L83.5 363.5L83 368.5L97 397.5L105 393L112 387L117 385.5V389L129 394L154 402.5L174 418L246.5 460.5L317 510L380.5 541.5L388.5 542.5L390.5 540.5L376 524.5L370 519L366.5 513.5L358.5 507L368 510L377.5 511.5L383 513.5Z" fill="#FFE9D5" stroke="#FFE9D5"/>
<path d="M210 422.5L186.5 406.5L184.5 411.5L178.5 407L169 406.5L128.5 393.5L157 405L145 410.5L142.5 452.5L151.5 454.5L176.5 430.5V427L178 422.5L192.5 429.5L217 445.5L234.5 457.5L244.5 467L251.5 470.5L265.5 480.5L280.5 491L322 518L337 526L358 531L339.5 514L320.5 494.5L309.5 498.5L303 478.5L280.5 475L265.5 460.5L248 452L229.5 424L210 422.5Z" fill="#FDBA97"/>
<path d="M210 422.5L186.5 406.5L184.5 411.5L178.5 407L169 406.5L128.5 393.5L157 405L145 410.5L142.5 452.5L151.5 454.5L176.5 430.5V427L178 422.5L192.5 429.5L217 445.5L234.5 457.5L244.5 467L251.5 470.5L265.5 480.5L280.5 491L322 518L337 526L358 531L339.5 514L320.5 494.5L309.5 498.5L303 478.5L280.5 475L265.5 460.5L248 452L229.5 424L210 422.5Z" fill="url(#paint0_linear_55_49)"/>
<path d="M106 388L94.5 385L85 389L86.5 401.5L93 401L97.5 397L97 392.5L106 388Z" fill="#FDBA97"/>
<path d="M106 388L94.5 385L85 389L86.5 401.5L93 401L97.5 397L97 392.5L106 388Z" fill="url(#paint1_linear_55_49)"/>
<path d="M63 364.5L56.5 361L54.5 360.5L57.5 358.5L71 356.5L79.5 361L82.5 358.5L87.5 359.5L89.2829 364H86L83 365L81.5 364L63 364.5Z" fill="#FDBA97"/>
<path d="M63 364.5L56.5 361L54.5 360.5L57.5 358.5L71 356.5L79.5 361L82.5 358.5L87.5 359.5L89.2829 364H86L83 365L81.5 364L63 364.5Z" fill="url(#paint2_linear_55_49)"/>
<path d="M242 377L236 395.5L226.5 399L217 394.5H195.5L186.5 399L178 394.5L151.5 381L163.5 382L154.5 374.5H160.5L153 365L149 367.5L148 359.5H133L136 353L158.5 350L242 377Z" fill="#FDBA97"/>
<path d="M242 377L236 395.5L226.5 399L217 394.5H195.5L186.5 399L178 394.5L151.5 381L163.5 382L154.5 374.5H160.5L153 365L149 367.5L148 359.5H133L136 353L158.5 350L242 377Z" fill="url(#paint3_linear_55_49)"/>
<path d="M278.5 346.5L266 339L114 315L93 321L88 327L82 328L70.5 336L67.5 333.5L56 319L47 327L48.5 357L40 366.5L28 369.5L19 374.5L11 391L21 383.5L11 393.5L1.5 406L0 414.5H6L37.5 389L16.5 400.5L43.5 371L46.5 362.5L54 357V349.5L57 345.5L54 336L56 328L60.5 339V344.5L75.5 336L105.5 328L103 336L116 331L243 371L249.5 373.5L256 380.5L269.5 377.5L262 400.5L268 393.5L278.5 389L283.5 400.5L271 412L281.5 410.5L296 408L289.5 420L297.5 418L293 425L297.5 431.5H310.5L314 436H322.5L314 447.5L330 440H343.5L351.5 445L340.5 451H353.5L356 456.5L336.5 459.5H353.5V464.5H340.5V468.5L353.5 471.5L343.5 473.5L340.5 486.5L336.5 489L347.5 497.5H356L373.5 501L362.5 494H369.5L364.5 489L362.5 477.5L364.5 471.5L378 477.5L382 486.5L385 494L378 497.5L390 503L401 501L403.5 511H394.5H382L420.5 523.5L431.5 526L433 522L417 505L403.5 494L385 477.5L373.5 459.5L364.5 445L345.5 418L314 377.5L297.5 362.5L278.5 346.5Z" fill="#686359"/>
<path d="M278.5 346.5L266 339L114 315L93 321L88 327L82 328L70.5 336L67.5 333.5L56 319L47 327L48.5 357L40 366.5L28 369.5L19 374.5L11 391L21 383.5L11 393.5L1.5 406L0 414.5H6L37.5 389L16.5 400.5L43.5 371L46.5 362.5L54 357V349.5L57 345.5L54 336L56 328L60.5 339V344.5L75.5 336L105.5 328L103 336L116 331L243 371L249.5 373.5L256 380.5L269.5 377.5L262 400.5L268 393.5L278.5 389L283.5 400.5L271 412L281.5 410.5L296 408L289.5 420L297.5 418L293 425L297.5 431.5H310.5L314 436H322.5L314 447.5L330 440H343.5L351.5 445L340.5 451H353.5L356 456.5L336.5 459.5H353.5V464.5H340.5V468.5L353.5 471.5L343.5 473.5L340.5 486.5L336.5 489L347.5 497.5H356L373.5 501L362.5 494H369.5L364.5 489L362.5 477.5L364.5 471.5L378 477.5L382 486.5L385 494L378 497.5L390 503L401 501L403.5 511H394.5H382L420.5 523.5L431.5 526L433 522L417 505L403.5 494L385 477.5L373.5 459.5L364.5 445L345.5 418L314 377.5L297.5 362.5L278.5 346.5Z" fill="url(#paint4_linear_55_49)"/>
<path d="M146.5 405.5H156L144.5 415.5L149.5 418L145.5 430.5L147.5 434L143.5 439L148.5 444.5L142.5 450.5L151 454.5L144.5 458.5L137.5 455.5V451.5V440.5L135.5 437L137.5 428.5L139 415.5L142.5 411L146.5 405.5Z" fill="#686359"/>
<path d="M146.5 405.5H156L144.5 415.5L149.5 418L145.5 430.5L147.5 434L143.5 439L148.5 444.5L142.5 450.5L151 454.5L144.5 458.5L137.5 455.5V451.5V440.5L135.5 437L137.5 428.5L139 415.5L142.5 411L146.5 405.5Z" fill="url(#paint5_linear_55_49)"/>
<path d="M146.5 385L139 375.5L158 385L178 394.5L171.5 401L146.5 385Z" fill="#686359"/>
<path d="M146.5 385L139 375.5L158 385L178 394.5L171.5 401L146.5 385Z" fill="url(#paint6_linear_55_49)"/>
<path d="M78.5 371.5L83 365.5L96 374.5L90.5 378.5L99 382L88 390.5L90.5 395L86.5 400.5H93L87.5 407L80.5 411.5L74 407.5V401.5L77.5 390.5L74 382L78.5 381V371.5Z" fill="#686359"/>
<path d="M78.5 371.5L83 365.5L96 374.5L90.5 378.5L99 382L88 390.5L90.5 395L86.5 400.5H93L87.5 407L80.5 411.5L74 407.5V401.5L77.5 390.5L74 382L78.5 381V371.5Z" fill="url(#paint7_linear_55_49)"/>
<path d="M243.5 483L266 481L280.5 491.5L248.5 512.5L235.5 515.5L224.5 518L223 512.5L231 507L229.5 503L243.5 483Z" fill="#686359"/>
<path d="M243.5 483L266 481L280.5 491.5L248.5 512.5L235.5 515.5L224.5 518L223 512.5L231 507L229.5 503L243.5 483Z" fill="url(#paint8_linear_55_49)"/>
<path d="M266 456L293 461L303 467L307.5 466L305.5 471L307 474.5H297.5L286.5 467.5L294.5 469L301 468.5L292 464H284.5L266 456Z" fill="#686359"/>
<path d="M266 456L293 461L303 467L307.5 466L305.5 471L307 474.5H297.5L286.5 467.5L294.5 469L301 468.5L292 464H284.5L266 456Z" fill="url(#paint9_linear_55_49)"/>
<path d="M314 510.5L313.5 504L321.5 510V513.5L325 513L333 517.5V523L337 521L357 531L382 542L352.5 535L321.5 517.5L314 510.5Z" fill="#686359"/>
<path d="M314 510.5L313.5 504L321.5 510V513.5L325 513L333 517.5V523L337 521L357 531L382 542L352.5 535L321.5 517.5L314 510.5Z" fill="url(#paint10_linear_55_49)"/>
<path d="M349.5 447H331V450L326 450.5L323.5 452.5L321 454L318 455L317 457.5V459L315 461.5V478L316.5 479.5V481.5L311.5 480.5V478L311 466L312.5 461.5L314 457.5L317 452.5H319.5V451L324 449L328 447L334.5 444L349.5 444.5V447Z" fill="#67472F" stroke="#67472F"/>
<path d="M79 343L84 333L88 332L87.5 334.5L98 329.5L99.5 334L104 329.5L102 335L110.5 328.5L108.5 334L116.5 329.5L126.5 331L128 340L122 343V337.5L112.5 344L117.5 332.5L111 336L106 345.5L104 341L96.5 343V335H91L87 343L85 337.5L79 343Z" fill="#B29285"/>
<path d="M79 343L84 333L88 332L87.5 334.5L98 329.5L99.5 334L104 329.5L102 335L110.5 328.5L108.5 334L116.5 329.5L126.5 331L128 340L122 343V337.5L112.5 344L117.5 332.5L111 336L106 345.5L104 341L96.5 343V335H91L87 343L85 337.5L79 343Z" fill="url(#paint11_linear_55_49)"/>
<path d="M237.5 384.5H225.5L227.5 382.5L246 375L241 381L246 384.5L235 392L237.5 384.5Z" fill="#B29285"/>
<path d="M237.5 384.5H225.5L227.5 382.5L246 375L241 381L246 384.5L235 392L237.5 384.5Z" fill="url(#paint12_linear_55_49)"/>
<path d="M250 392V387L244.5 392L246 396L252.5 397L254 405H259.5L264 407.5L271.5 398.5L276.5 395L278.5 398L273 404L272.5 407H277.5V402.5L285 397L285.5 392L281 393.5L279.5 388.5V393L276.5 392L270.5 393L263 403.5L260.5 402.5V395.5L255.5 396L268.5 378.5L250 392Z" fill="#B29285"/>
<path d="M250 392V387L244.5 392L246 396L252.5 397L254 405H259.5L264 407.5L271.5 398.5L276.5 395L278.5 398L273 404L272.5 407H277.5V402.5L285 397L285.5 392L281 393.5L279.5 388.5V393L276.5 392L270.5 393L263 403.5L260.5 402.5V395.5L255.5 396L268.5 378.5L250 392Z" fill="url(#paint13_linear_55_49)"/>
<path d="M272.5 415.5L275 410L276.5 412L281 410L282 412L287.5 406L290.5 407L287.5 411.5L297 408L300 410L292.5 413.5L287.5 417.5L292 418.5L298 413.5L299.5 415.5L296 420L291 427.5L290.5 420.5H285L284 414.5L279.5 417.5L277.5 415.5H272.5Z" fill="#B29285"/>
<path d="M272.5 415.5L275 410L276.5 412L281 410L282 412L287.5 406L290.5 407L287.5 411.5L297 408L300 410L292.5 413.5L287.5 417.5L292 418.5L298 413.5L299.5 415.5L296 420L291 427.5L290.5 420.5H285L284 414.5L279.5 417.5L277.5 415.5H272.5Z" fill="url(#paint14_linear_55_49)"/>
<path d="M305 422.5L297 424.5L304.5 419.5L308 417.5L310.5 419L307 424.5L314 422.5L313 426.5H317.5L318 429.5L316.5 435L311.5 439.5L312 432H307L302 433L307 427.5L296 431L305 422.5Z" fill="#B29285"/>
<path d="M305 422.5L297 424.5L304.5 419.5L308 417.5L310.5 419L307 424.5L314 422.5L313 426.5H317.5L318 429.5L316.5 435L311.5 439.5L312 432H307L302 433L307 427.5L296 431L305 422.5Z" fill="url(#paint15_linear_55_49)"/>
<path d="M313.5 443.5L321.5 436H325L321 440.5L323.5 439.5V441.5L328.5 439.5L336.5 435H345L345.5 437.5L334.5 439L329 443.5H322.5H313.5Z" fill="#B29285"/>
<path d="M313.5 443.5L321.5 436H325L321 440.5L323.5 439.5V441.5L328.5 439.5L336.5 435H345L345.5 437.5L334.5 439L329 443.5H322.5H313.5Z" fill="url(#paint16_linear_55_49)"/>
<path d="M381 487.5C381 491.366 377.866 494.5 374 494.5C370.134 494.5 367 491.366 367 487.5C367 483.634 370.134 480.5 374 480.5C377.866 480.5 381 483.634 381 487.5Z" fill="black"/>
<path d="M374 482.5C376.761 482.5 379 484.739 379 487.5C379 490.261 376.761 492.5 374 492.5C371.239 492.5 369 490.261 369 487.5C369 484.739 371.239 482.5 374 482.5Z" fill="black" stroke="white" stroke-width="2"/>
<path d="M272.5 342L266.5 339L263 345.5L152.5 350.5L111.5 334.5L115.5 318L104 320.5L108.5 309.5L101 314L104 304.5L95.5 309.5V300L89.5 305.5V292L80 300L85 286.5L80 290V282L76.5 290L74 279.5L76.5 266L67 264.5L74 255.5L68.5 257L71 246.5H67V236L60 240L61.5 230V224L56 230L57.5 219.5L60 210L49 214L51.5 210L57.5 204.5L56 201L49 203.5L51.5 194H39L49 189.5H40.5L44 183H40.5L29.5 178V172H21.5L23.5 162L19.5 160.376L23.5 155H15.5L19.5 144L29.5 136L44 129.5L53.5 136V129.5L61.5 133.5L64.5 126L76.5 133.5L89.5 152.5V139.5H104V133.5H117V126H129L136 116H147.5V103.5L164 106L173.5 103.5L189.5 116V103.5L202 106L205.5 93.5L219 106L223.5 96.5L226.5 106L229.5 96.5L236 116L242.5 106L247 126L259 116V126L266.5 118.5L275 133.5V121.5H286L283.5 110.5H286V100.5H290V93.5H296.5V85.5H305.5L308.5 76.5L320 85.5L325 80L329.5 83H332V90.5L337 88V96.5L341 93.5V100.5L349 103.5L345 110.5L341 126V136L345 144L334.5 155L345 162L332 170L341 173.5L329.5 178L341 186H332L345 204.5H334.5L345 215L337 227L349 230L337 237.5L363 241.5L353 251L356.5 265.5H345L341 272.5H321.5L326.5 276.5L321.5 281L326.5 289H320L325 295H311L316 303H308.5L312.5 307.5L305.5 311L308.5 319.5L296.5 321.5L299 332.5H286V339H275L272.5 342Z" fill="#95633A"/>
<path d="M266.5 339L272.5 342L275 339H286V332.5H299L296.5 321.5L308.5 319.5L305.5 311L312.5 307.5L308.5 303H316L311 295H325L320 289H326.5L321.5 281L326.5 276.5L321.5 272.5H341L345 265.5H356.5L353 251L363 241.5L337 237.5L349 230L337 227L345 215L334.5 204.5H345L332 186H341L329.5 178L341 173.5L332 170L345 162L334.5 155L345 144L341 136V126L345 110.5L349 103.5L341 100.5V93.5L337 96.5V88L332 90.5V83H329.5L325 80L320 85.5L308.5 76.5L305.5 85.5H296.5V93.5H290V100.5H286V110.5H283.5L286 121.5H275V133.5L266.5 118.5L259 126V116L247 126L242.5 106L236 116L229.5 96.5L226.5 106L223.5 96.5L219 106L205.5 93.5L202 106L189.5 103.5V116L173.5 103.5L164 106L147.5 103.5V116H136L129 126H117V133.5H104V139.5H89.5V152.5L76.5 133.5L64.5 126L61.5 133.5L53.5 129.5V136L44 129.5L29.5 136L19.5 144L15.5 155H23.5L19.5 160.376L23.5 162L21.5 172H29.5V178L40.5 183H23.5H44L40.5 189.5H49L39 194H51.5L49 203.5L56 201L57.5 204.5L51.5 210L49 214L60 210L57.5 219.5L56 230L61.5 224V230L60 240L67 236V246.5H71L68.5 257L74 255.5L67 264.5L76.5 266L74 279.5L76.5 290L80 282V290L85 286.5L80 300L89.5 292V305.5L95.5 300V309.5L104 304.5L101 314L108.5 309.5L104 320.5L115.5 318L111.5 334.5L152.5 350.5L263 345.5L266.5 339Z" stroke="#95633A"/>
<path d="M199.5 126H213L209.5 135.5L220 129.5V139.5L230.5 124.5L228.5 141.5L238 123L232.5 146.5L241.5 126L239.5 146.5L251.5 134.5V141.5H277.5L253 149H262L258.5 156L283.5 149L273.5 156L266 158L272.5 159.5L264 168V175L266 170.5L280 159.5L277.5 166L287.5 162.5L283.5 158H293L290 153L293 149L295.5 141.5H307.5V135.5L317 134.5V124.5L328.5 118.5H317V101.5L304 118.5L302.5 105.5L299.5 121L295.5 117.5L293 126L280 129.5L285 123L290 121V111H295.5V101.5H301V91L312.5 93.5V86.5L321.5 93.5L324.5 86.5L326.5 95L333 89L331.5 96.5L336 101.5H333L336 105.5V114.5V123L331.5 129.5H321.5V141.5H312.5L308.5 149L295.5 153L308.5 159.5L293 162.5L302.5 166L293 170.5L312.5 179.5L293 184L312.5 186H293L315 201.5H302.5L308.5 213L301 217.5H297V226.5L290 230L295.5 233H280L293 220L274.5 222.5L283.5 206L270 214.5V195.5L264 204L262 193L256.5 176.5L258.5 198L241.5 204L251.5 195.5V186L245 168V196.5H238V204L234.5 201.5V193L239.5 187.5L238 155L230.5 166L226.5 159.5L221.5 175V155L209.5 173.5V151.5L207 162.5V144.5L199.5 162.5V141.5L192 178.5L190 137L186.5 143L184 134.5L180.5 143L175 134.5V141.5H157L162.5 143L147.5 141.5L160 153L147.5 149L165 170.5L140.5 162.5L160 175L138.5 168L168.5 184H160V190L153.5 187.5L157 200L152 201.5V217.5L149.5 220L152 226.5L140.5 228.5L133 226.5L138.5 220H127L136.5 213H122.5L133 206L116.5 201.5L127 196.5H113L133 184H124L129 179.5H116.5L119.5 184L97.5 190H112L91 195.5L106.5 198H86L82 211L74.5 226.5L66 222.5L74.5 206L64.5 204L72.5 201.5L66 198L79.5 190L93 184L96 178.5L103 162.5L117.5 155V144.5H136.5L140.5 134.5H162.5V129.5H184L192 126L199.5 129.5V126Z" fill="#AE7647"/>
<path d="M38 157.5L30 155L35.5 152.5L31.5 150.5L40.5 148.5L37 145.5H47.5V137H54.5V132L64.5 133.5L68.5 139.5V152L56 141V147H50.5L53 152.5L48.5 152L49.5 156.5H43L47.5 160L46 164.5L57.5 169L55 171L56 176L49.5 178.5L52 174H42L52 168L37 169L40.5 162.5L31.5 161.5L38 157.5Z" fill="#AE7647"/>
<path d="M305 217.5H301M301 217.5H297V226.5L290 230L295.5 233H280L293 220L274.5 222.5L283.5 206L270 214.5V195.5L264 204L262 193L256.5 176.5L258.5 198L241.5 204L251.5 195.5V186L245 168V196.5H238V204L234.5 201.5V193L239.5 187.5L238 155L230.5 166L226.5 159.5L221.5 175V155L209.5 173.5V151.5L207 162.5V144.5L199.5 162.5V141.5L192 178.5L190 137L186.5 143L184 134.5L180.5 143L175 134.5V141.5H157L162.5 143L147.5 141.5L160 153L147.5 149L165 170.5L140.5 162.5L160 175L138.5 168L168.5 184H160V190L153.5 187.5L157 200L152 201.5V217.5L149.5 220L152 226.5L140.5 228.5L133 226.5L138.5 220H127L136.5 213H122.5L133 206L116.5 201.5L127 196.5H113L133 184H124L129 179.5H116.5L119.5 184L97.5 190H112L91 195.5L106.5 198H86L82 211L74.5 226.5L66 222.5L74.5 206L64.5 204L72.5 201.5L66 198L79.5 190L93 184L96 178.5L103 162.5L117.5 155V144.5H136.5L140.5 134.5H162.5V129.5H184L192 126L199.5 129.5V126H213L209.5 135.5L220 129.5V139.5L230.5 124.5L228.5 141.5L238 123L232.5 146.5L241.5 126L239.5 146.5L251.5 134.5V141.5H277.5L253 149H262L258.5 156L283.5 149L273.5 156L266 158L272.5 159.5L264 168V175L266 170.5L280 159.5L277.5 166L287.5 162.5L283.5 158H293L290 153L293 149L295.5 141.5H307.5V135.5L317 134.5V124.5L328.5 118.5H317V101.5L304 118.5L302.5 105.5L299.5 121L295.5 117.5L293 126L280 129.5L285 123L290 121V111H295.5V101.5H301V91L312.5 93.5V86.5L321.5 93.5L324.5 86.5L326.5 95L333 89L331.5 96.5L336 101.5H333L336 105.5V114.5V123L331.5 129.5H321.5V141.5H312.5L308.5 149L295.5 153L308.5 159.5L293 162.5L302.5 166L293 170.5L312.5 179.5L293 184L312.5 186H293L315 201.5H302.5L308.5 213L301 217.5ZM30 155L38 157.5L31.5 161.5L40.5 162.5L37 169L52 168L42 174H52L49.5 178.5L56 176L55 171L57.5 169L46 164.5L47.5 160L43 156.5H49.5L48.5 152L53 152.5L50.5 147H56V141L68.5 152V139.5L64.5 133.5L54.5 132V137H47.5V145.5H37L40.5 148.5L31.5 150.5L35.5 152.5L30 155Z" stroke="#AE7647"/>
<path d="M209 259.5L217.5 273L228.5 290L234 279.5L243.5 287.5V279.5H247V273H254.5V264.5L260 259.5L253 258L250.5 249H241.5L234 252.5L227.5 255V246.5L218.5 258V246.5L225.5 237L220 235L223 230L220 222L225.5 214.5L217.5 210L215.5 201H207V208L212.5 218V225H207L209 232.5H205.5L207 241.5L202.5 244L205.5 249L209 259.5Z" fill="#4B3223"/>
<path d="M172 267.5V276L162.5 284.5L146.5 287.5L151 281.5L138.5 276L144 273L136 271.5V264.5L138.5 258L148 257H157L154 252.5L161.5 253L168 250.5L157.5 246.5H164.5V241.5L151 244L157.5 237H149.5L159 230L157.5 223.5V214.5V203L162.5 202V196.5L169.5 198L172 194L173 199.5L168 201L166.5 205.5V210L168 214.5L166.5 223.5L172 232.5V237H176V241.5L184.5 255L172 246.5V250.5L175 258V273L172 267.5Z" fill="#4B3223"/>
<path d="M209 259.5L217.5 273L228.5 290L234 279.5L243.5 287.5V279.5H247V273H254.5V264.5L260 259.5L253 258L250.5 249H241.5L234 252.5L227.5 255V246.5L218.5 258V246.5L225.5 237L220 235L223 230L220 222L225.5 214.5L217.5 210L215.5 201H207V208L212.5 218V225H207L209 232.5H205.5L207 241.5L202.5 244L205.5 249L209 259.5Z" stroke="#4B3223"/>
<path d="M172 267.5V276L162.5 284.5L146.5 287.5L151 281.5L138.5 276L144 273L136 271.5V264.5L138.5 258L148 257H157L154 252.5L161.5 253L168 250.5L157.5 246.5H164.5V241.5L151 244L157.5 237H149.5L159 230L157.5 223.5V214.5V203L162.5 202V196.5L169.5 198L172 194L173 199.5L168 201L166.5 205.5V210L168 214.5L166.5 223.5L172 232.5V237H176V241.5L184.5 255L172 246.5V250.5L175 258V273L172 267.5Z" stroke="#4B3223"/>
<path d="M267.5 337L250.5 368L182 378.5L170 371.5L166 367L159.5 363.5L156.5 357.5L151.5 349.5V337L150 326.5L146.5 317L148 313L150 317H156.5V315L159.5 310L163 302.5L165 305.5L173.5 300.5L170 297L168.5 291.5H165L162 285.5V279L166 273.5L168.5 274.5H174.5L180.5 276V284.5L182 290L186 287.5L194 285.5L202 287.5L208 282V290L207 295V305.5L213 310V302.5L214.5 297L210.5 289V276L219.5 270.5H226.5V274.5V279L229.5 287.5L226.5 305.5L229.5 300L231 305.5V310L235.5 308L241 301L246 304L254 302.5L250.5 308L252.5 313V315L254 318.5V326.5V330.5L256 333.5H259.5V339.5L263 337V340.5L267.5 337Z" fill="#7A522D"/>
<path d="M242 379L229 385L221 387.5H203L185.5 385L172.5 372.5V367.5V355L177 344V350L181.5 358L188.5 355V346L195.5 352L203 355L211 350L217 344H225.5L229 346L234 355L242 352L240 362L244.5 367.5H250.5L242 379Z" fill="#453A34" stroke="#453A34"/>
<path d="M194.5 367L214 365H225L233.5 370L235.5 373.5L233.5 376.5L227 381.5L222 383.5H217.5L222 381.5L221 379.5H215L211 384.5L208 386H205.5L208 381.5H205.5L202 384.5L198 386L191 385L185 383.5L182.5 381V377.5L185.5 374L194.5 367Z" fill="#35251D" stroke="#35251D"/>
<circle cx="238.5" cy="268.5" r="8.5" fill="black"/>
<circle cx="156.5" cy="271.5" r="8.5" fill="black"/>
<path d="M254.5 520.5L237.5 522.5L229.5 525L227 528L238.5 535H242L254.5 530.5L266 522.5V515L261.5 516L254.5 520.5Z" fill="#D4B8A2"/>
<path d="M230.5 548L234 542.5L237.5 543L254.5 541L263 535.5H267.5L268 539.5L260.5 548L248 550.5L240 552L230.5 548Z" fill="#D4B8A2"/>
<path d="M248 559H240L228 561.5L229 562.5L244 567L251.5 566.5L257 564L260.5 560.5L256 557.5L248 559Z" fill="#D4B8A2"/>
<path d="M237 573.5L223 574L216 575.5L203 576.5V579.5L198 580.5L210.5 584L219.5 581L235 580.5L240.5 577.5L237 573.5Z" fill="#D4B8A2"/>
<path d="M254.5 520.5L237.5 522.5L229.5 525L227 528L238.5 535H242L254.5 530.5L266 522.5V515L261.5 516L254.5 520.5Z" stroke="#D4B8A2"/>
<path d="M230.5 548L234 542.5L237.5 543L254.5 541L263 535.5H267.5L268 539.5L260.5 548L248 550.5L240 552L230.5 548Z" stroke="#D4B8A2"/>
<path d="M248 559H240L228 561.5L229 562.5L244 567L251.5 566.5L257 564L260.5 560.5L256 557.5L248 559Z" stroke="#D4B8A2"/>
<path d="M237 573.5L223 574L216 575.5L203 576.5V579.5L198 580.5L210.5 584L219.5 581L235 580.5L240.5 577.5L237 573.5Z" stroke="#D4B8A2"/>
<circle cx="241.5" cy="272.5" r="1.5" fill="white"/>
<circle cx="160.5" cy="274.5" r="1.5" fill="white"/>
<defs>
<linearGradient id="paint0_linear_55_49" x1="217.5" y1="362" x2="155" y2="473.5" gradientUnits="userSpaceOnUse">
<stop stop-color="#FFA88B"/>
<stop offset="1" stop-color="#FFE9D5"/>
</linearGradient>
<linearGradient id="paint1_linear_55_49" x1="217.5" y1="362" x2="155" y2="473.5" gradientUnits="userSpaceOnUse">
<stop stop-color="#FFA88B"/>
<stop offset="1" stop-color="#FFE9D5"/>
</linearGradient>
<linearGradient id="paint2_linear_55_49" x1="217.5" y1="362" x2="155" y2="473.5" gradientUnits="userSpaceOnUse">
<stop stop-color="#FFA88B"/>
<stop offset="1" stop-color="#FFE9D5"/>
</linearGradient>
<linearGradient id="paint3_linear_55_49" x1="217.5" y1="362" x2="155" y2="473.5" gradientUnits="userSpaceOnUse">
<stop stop-color="#FFA88B"/>
<stop offset="1" stop-color="#FFE9D5"/>
</linearGradient>
<linearGradient id="paint4_linear_55_49" x1="310.5" y1="346" x2="127.5" y2="624" gradientUnits="userSpaceOnUse">
<stop stop-color="#FFE9D5" stop-opacity="0"/>
<stop offset="1" stop-color="#FFE9D5"/>
</linearGradient>
<linearGradient id="paint5_linear_55_49" x1="310.5" y1="346" x2="127.5" y2="624" gradientUnits="userSpaceOnUse">
<stop stop-color="#FFE9D5" stop-opacity="0"/>
<stop offset="1" stop-color="#FFE9D5"/>
</linearGradient>
<linearGradient id="paint6_linear_55_49" x1="310.5" y1="346" x2="127.5" y2="624" gradientUnits="userSpaceOnUse">
<stop stop-color="#FFE9D5" stop-opacity="0"/>
<stop offset="1" stop-color="#FFE9D5"/>
</linearGradient>
<linearGradient id="paint7_linear_55_49" x1="310.5" y1="346" x2="127.5" y2="624" gradientUnits="userSpaceOnUse">
<stop stop-color="#FFE9D5" stop-opacity="0"/>
<stop offset="1" stop-color="#FFE9D5"/>
</linearGradient>
<linearGradient id="paint8_linear_55_49" x1="310.5" y1="346" x2="127.5" y2="624" gradientUnits="userSpaceOnUse">
<stop stop-color="#FFE9D5" stop-opacity="0"/>
<stop offset="1" stop-color="#FFE9D5"/>
</linearGradient>
<linearGradient id="paint9_linear_55_49" x1="310.5" y1="346" x2="127.5" y2="624" gradientUnits="userSpaceOnUse">
<stop stop-color="#FFE9D5" stop-opacity="0"/>
<stop offset="1" stop-color="#FFE9D5"/>
</linearGradient>
<linearGradient id="paint10_linear_55_49" x1="310.5" y1="346" x2="127.5" y2="624" gradientUnits="userSpaceOnUse">
<stop stop-color="#FFE9D5" stop-opacity="0"/>
<stop offset="1" stop-color="#FFE9D5"/>
</linearGradient>
<linearGradient id="paint11_linear_55_49" x1="279.5" y1="365.5" x2="248.5" y2="412" gradientUnits="userSpaceOnUse">
<stop stop-color="#FFE9D5" stop-opacity="0"/>
<stop offset="1" stop-color="#FFE9D5"/>
</linearGradient>
<linearGradient id="paint12_linear_55_49" x1="279.5" y1="365.5" x2="248.5" y2="412" gradientUnits="userSpaceOnUse">
<stop stop-color="#FFE9D5" stop-opacity="0"/>
<stop offset="1" stop-color="#FFE9D5"/>
</linearGradient>
<linearGradient id="paint13_linear_55_49" x1="279.5" y1="365.5" x2="248.5" y2="412" gradientUnits="userSpaceOnUse">
<stop stop-color="#FFE9D5" stop-opacity="0"/>
<stop offset="1" stop-color="#FFE9D5"/>
</linearGradient>
<linearGradient id="paint14_linear_55_49" x1="279.5" y1="365.5" x2="248.5" y2="412" gradientUnits="userSpaceOnUse">
<stop stop-color="#FFE9D5" stop-opacity="0"/>
<stop offset="1" stop-color="#FFE9D5"/>
</linearGradient>
<linearGradient id="paint15_linear_55_49" x1="279.5" y1="365.5" x2="248.5" y2="412" gradientUnits="userSpaceOnUse">
<stop stop-color="#FFE9D5" stop-opacity="0"/>
<stop offset="1" stop-color="#FFE9D5"/>
</linearGradient>
<linearGradient id="paint16_linear_55_49" x1="279.5" y1="365.5" x2="248.5" y2="412" gradientUnits="userSpaceOnUse">
<stop stop-color="#FFE9D5" stop-opacity="0"/>
<stop offset="1" stop-color="#FFE9D5"/>
</linearGradient>
</defs>
</svg>
