<svg width="350" height="313" viewBox="0 0 350 313" fill="none" xmlns="http://www.w3.org/2000/svg">
<path d="M236 292.5L253 261.5L248.5 265V261.5L245 264V258H241.5L239.5 255V251V243L238 239.5V237.5L236 232.5L239.5 227L231.5 228.5L226.5 225.5L221 232.5L216.5 234.5V230L215 224.5L212 230L214 214M202 196.5L196 200.5V213.5L200 221.5L198.5 227V234.5L192.5 230V219.5L193.5 214.5V206.5L187.5 212L179.5 210L171.5 212L167.5 214.5L166 209V200.5L157.5 198.5M147.5 209.5L150.5 216H154L155.5 221.5L159 225L150.5 230L148.5 227L145 234.5L142 239.5V241.5H135.5L133.5 237.5L132 241.5L135.5 251L137 261.5V274L142 282L145 288L151.5 291.5L158 297" stroke="#7A522D"/>
<path d="M138 275L97 259L101 242.5L89.5 245L94 234L86.5 238.5L89.5 229L81 234V224.5L75 230V216.5L65.5 224.5L70.5 211L65.5 214.5V206.5L62 214.5L59.5 204L62 190.5L52.5 189L59.5 180L54 181.5L56.5 171H52.5V160.5L45.5 164.5L47 154.5V148.5L41.5 154.5L43 144L45.5 134.5L34.5 138.5L37 134.5L43 129L41.5 125.5L34.5 128L37 118.5H24.5L34.5 114H26L29.5 107.5H9H26L15 102.5V96.5H7L9 86.5L5 84.8757L9 79.5H1L5 68.5L15 60.5L29.5 54L39 60.5V54L47 58L50 50.5L62 58L75 77V64H89.5V58H102.5V50.5H114.5L121.5 40.5H133V28L149.5 30.5L159 28L175 40.5V28L187.5 30.5L191 18L204.5 30.5L209 21L212 30.5L215 21L221.5 40.5L228 30.5L232.5 50.5L244.5 40.5V50.5L252 43L260.5 58V46H271.5L269 35H271.5V25H275.5V18H282V10H291L294 1L305.5 10L310.5 4.5L315 7.5H317.5V15L322.5 12.5V21L326.5 18V25L334.5 28L330.5 35L326.5 50.5V60.5L330.5 68.5L320 79.5L330.5 86.5L317.5 94.5L326.5 98L315 102.5L326.5 110.5H317.5L330.5 129H320L330.5 139.5L322.5 151.5L334.5 154.5L322.5 162L348.5 166L338.5 175.5L342 190H330.5L326.5 197H307L312 201L307 205.5L312 213.5H305.5L310.5 219.5H296.5L301.5 227.5H294L298 232L291 235.5L294 244L282 246L284.5 257H271.5V263.5H260.5L258 266.5L252 263.5L248.5 270" stroke="#95633A"/>
<path d="M290.5 142H286.5M286.5 142H282.5V151L275.5 154.5L281 157.5H265.5L278.5 144.5L260 147L269 130.5L255.5 139V120L249.5 128.5L247.5 117.5L242 101L244 122.5L227 128.5L237 120V110.5L230.5 92.5V121H223.5V128.5L220 126V117.5L225 112L223.5 79.5L216 90.5L212 84L207 99.5V79.5L195 98V76L192.5 87V69L185 87V66L177.5 103L175.5 61.5L172 67.5L169.5 59L166 67.5L160.5 59V66H142.5L148 67.5L133 66L145.5 77.5L133 73.5L150.5 95L126 87L145.5 99.5L124 92.5L154 108.5H145.5V114.5L139 112L142.5 124.5L137.5 126V142L135 144.5L137.5 151L126 153L118.5 151L124 144.5H112.5L122 137.5H108L118.5 130.5L102 126L112.5 121H98.5L118.5 108.5H109.5L114.5 104H102L105 108.5L83 114.5H97.5L76.5 120L92 122.5H71.5L67.5 135.5L60 151L51.5 147L60 130.5L50 128.5L58 126L51.5 122.5L65 114.5L78.5 108.5L81.5 103L88.5 87L103 79.5V69H122L126 59H148V54H169.5L177.5 50.5L185 54V50.5H198.5L195 60L205.5 54V64L216 49L214 66L223.5 47.5L218 71L227 50.5L225 71L237 59V66H263L238.5 73.5H247.5L244 80.5L269 73.5L259 80.5L251.5 82.5L258 84L249.5 92.5V99.5L251.5 95L265.5 84L263 90.5L273 87L269 82.5H278.5L275.5 77.5L278.5 73.5L281 66H293V60L302.5 59V49L314 43H302.5V26L289.5 43L288 30L285 45.5L281 42L278.5 50.5L265.5 54L270.5 47.5L275.5 45.5V35.5H281V26H286.5V15.5L298 18V11L307 18L310 11L312 19.5L316.5 17L317 21L321.5 26H318.5L321.5 30V39V47.5L317 54H307V66H298L294 73.5L281 77.5L294 84L278.5 87L288 90.5L278.5 95L298 104L278.5 108.5L298 110.5H278.5L300.5 126H288L294 137.5L286.5 142ZM15.5 79.5L23.5 82L17 86L26 87L22.5 93.5L37.5 92.5L27.5 98.5H37.5L35 103L41.5 100.5L40.5 95.5L43 93.5L31.5 89L33 84.5L28.5 81H35L34 76.5L38.5 77L36 71.5H41.5V65.5L54 76.5V64L50.5 61.5L41 57.5L43 63.5L33 61.5V70H22.5L26 73L17 75L21 77L15.5 79.5Z" stroke="#AE7647"/>
<path d="M194.5 184L203 197.5L214 214.5L219.5 204L229 212V204H232.5V197.5H240V189L245.5 184L238.5 182.5L236 173.5H227L219.5 177L213 179.5V171L204 182.5V171L211 161.5L205.5 159.5L208.5 154.5L205.5 146.5L211 139L203 134.5L201 125.5H192.5V132.5L198 142.5V149.5H192.5L194.5 157H191L192.5 166L188 168.5L191 173.5L194.5 184Z" stroke="#4B3223"/>
<path d="M157.5 192V200.5L148 209L132 212L136.5 206L124 200.5L129.5 197.5L121.5 196V189L124 182.5L133.5 181.5H142.5L139.5 177L147 177.5L153.5 175L143 171H150V166L136.5 168.5L143 161.5H135L144.5 154.5L143 148V139V127.5L148 126.5V121L155 122.5L157.5 118.5L158.5 124L153.5 125.5L152 130V134.5L153.5 139L152 148L157.5 157V161.5H161.5V166L170 179.5L157.5 171V175L160.5 182.5V197.5L157.5 192Z" stroke="#4B3223"/>
<path d="M227.5 303.5L214.5 309.5L206.5 312H188.5L171 309.5L158 297V292V279.5L162.5 268.5V274.5L167 282.5L174 279.5V270.5L181 276.5L188.5 279.5L196.5 274.5L202.5 268.5H211L214.5 270.5L219.5 279.5L227.5 276.5L225.5 286.5L230 292H236L227.5 303.5Z" stroke="#453A34"/>
<path d="M180 290.5L199.5 288.5H210.5L219 293.5L221 297L219 300L212.5 305L207.5 307H203L207.5 305L206.5 303H200.5L196.5 308L193.5 309.5H191L193.5 305H191L187.5 308L183.5 309.5L176.5 308.5L170.5 307L168 304.5V301L171 297.5L180 290.5Z" stroke="#35251D"/>
<circle cx="142" cy="196" r="8.5" fill="black"/>
<circle cx="146" cy="199" r="1.5" fill="white"/>
<line x1="227.761" y1="185.849" x2="210.762" y2="192.849" stroke="black" stroke-width="4"/>
<line x1="226.334" y1="198.886" x2="209.334" y2="192.886" stroke="black" stroke-width="4"/>
</svg>
